<svg xmlns="http://www.w3.org/2000/svg" viewBox="0 0 800 1067" width="800" height="1067">
  <defs>
    <linearGradient id="bg" x1="0" y1="0" x2="0" y2="1">
      <stop offset="0%" stop-color="#F0F2F5"/>
      <stop offset="100%" stop-color="#E2E6EC"/>
    </linearGradient>
    <linearGradient id="suit" x1="0" y1="0" x2="0" y2="1">
      <stop offset="0%" stop-color="#1B2A4A"/>
      <stop offset="50%" stop-color="#0F1D35"/>
      <stop offset="100%" stop-color="#0A1628"/>
    </linearGradient>
    <linearGradient id="shirt" x1="0" y1="0" x2="0" y2="1">
      <stop offset="0%" stop-color="#FFFFFF"/>
      <stop offset="100%" stop-color="#F0EDE8"/>
    </linearGradient>
    <linearGradient id="tie" x1="0" y1="0" x2="0" y2="1">
      <stop offset="0%" stop-color="#8B0000"/>
      <stop offset="50%" stop-color="#6B0000"/>
      <stop offset="100%" stop-color="#4A0000"/>
    </linearGradient>
    <filter id="shadow1"><feDropShadow dx="0" dy="25" stdDeviation="35" flood-color="#000" flood-opacity="0.2"/></filter>
    <filter id="innerShadow"><feOffset dx="0" dy="4"/><feGaussianBlur stdDeviation="6"/><feComposite operator="out" in="SourceGraphic"/><feColorMatrix values="0 0 0 0 0 0 0 0 0 0 0 0 0 0 0 0 0 0 0.15 0"/><feBlend in="SourceGraphic"/></filter>
    <radialGradient id="spotlight" cx="50%" cy="35%" r="55%">
      <stop offset="0%" stop-color="#fff" stop-opacity="0.35"/>
      <stop offset="100%" stop-color="#fff" stop-opacity="0"/>
    </radialGradient>
  </defs>

  <rect width="800" height="1067" fill="url(#bg)"/>
  <ellipse cx="400" cy="380" rx="450" ry="380" fill="url(#spotlight)"/>

  <!-- Suit Jacket -->
  <g filter="url(#shadow1)">
    <!-- Lapels -->
    <path d="M310,200 L370,300 L340,550 Q320,600 300,650 L280,900 Q260,920 240,910 L200,900 L220,650 Q240,550 260,480 L280,350 Z" fill="url(#suit)"/>
    <path d="M490,200 L430,300 L460,550 Q480,600 500,650 L520,900 Q540,920 560,910 L600,900 L580,650 Q560,550 540,480 L520,350 Z" fill="url(#suit)"/>

    <!-- Jacket body -->
    <path d="M280,350 Q350,320 400,325 Q450,320 520,350 L540,480 Q520,550 500,600 L500,900 Q480,920 400,930 Q320,920 300,900 L300,600 Q280,550 260,480 Z" fill="url(#suit)"/>

    <!-- Button -->
    <circle cx="400" cy="520" r="6" fill="#1B2A4A" stroke="#2A3F6E" stroke-width="1.5"/>
    <circle cx="400" cy="620" r="6" fill="#1B2A4A" stroke="#2A3F6E" stroke-width="1.5"/>

    <!-- Pocket square -->
    <path d="M320,400 L350,380 L360,400 L340,420 Z" fill="#8B0000" opacity="0.8"/>
  </g>

  <!-- Shirt -->
  <g>
    <path d="M355,220 Q400,210 445,220 L455,300 Q430,310 400,312 Q370,310 345,300 Z" fill="url(#shirt)"/>
    <!-- Collar -->
    <path d="M340,200 L370,230 L400,220 L430,230 L460,200 L440,180 Q400,190 360,180 Z" fill="url(#shirt)"/>
    <path d="M340,200 L370,230 L400,220" stroke="#E0DDD5" stroke-width="0.5" fill="none"/>
    <path d="M460,200 L430,230 L400,220" stroke="#E0DDD5" stroke-width="0.5" fill="none"/>
  </g>

  <!-- Tie -->
  <g>
    <path d="M395,235 L400,240 L405,235 L410,320 L400,340 L390,320 Z" fill="url(#tie)"/>
    <path d="M393,240 L407,240 L410,320 L400,335 L390,320 Z" fill="url(#tie)" opacity="0.9"/>
    <!-- Tie knot -->
    <path d="M392,228 L400,242 L408,228 Z" fill="#8B0000"/>
  </g>

  <!-- Watch on wrist suggestion -->
  <g transform="translate(220,600)">
    <rect x="-20" y="-8" width="40" height="16" rx="3" fill="#1B2A4A"/>
    <circle cx="0" cy="0" r="12" fill="#D4AF37" stroke="#B8960F" stroke-width="1"/>
    <circle cx="0" cy="0" r="9" fill="#FAFAFA"/>
    <line x1="0" y1="0" x2="0" y2="-6" stroke="#333" stroke-width="1.2" stroke-linecap="round"/>
    <line x1="0" y1="0" x2="4" y2="2" stroke="#333" stroke-width="0.8" stroke-linecap="round"/>
  </g>

  <!-- Fabric texture -->
  <g opacity="0.04">
    <line x1="280" y1="350" x2="300" y2="900" stroke="#000" stroke-width="0.5"/>
    <line x1="320" y1="340" x2="330" y2="910" stroke="#000" stroke-width="0.5"/>
    <line x1="360" y1="330" x2="360" y2="920" stroke="#000" stroke-width="0.5"/>
    <line x1="400" y1="325" x2="400" y2="930" stroke="#000" stroke-width="0.5"/>
    <line x1="440" y1="330" x2="440" y2="920" stroke="#000" stroke-width="0.5"/>
    <line x1="480" y1="340" x2="470" y2="910" stroke="#000" stroke-width="0.5"/>
    <line x1="520" y1="350" x2="500" y2="900" stroke="#000" stroke-width="0.5"/>
  </g>

  <!-- Subtle suit texture -->
  <g opacity="0.03">
    <pattern id="pinstripe" patternUnits="userSpaceOnUse" width="8" height="8">
      <line x1="4" y1="0" x2="4" y2="8" stroke="#fff" stroke-width="0.5"/>
    </pattern>
    <rect x="260" y="300" width="280" height="600" fill="url(#pinstripe)" clip-path="inset(0)"/>
  </g>

  <text x="400" y="1020" text-anchor="middle" font-family="Georgia, serif" font-size="14" fill="#1B2A4A" opacity="0.3" letter-spacing="8">FORMAL SUITING</text>
</svg>
